<?xml version="1.0" encoding="UTF-8"?><!DOCTYPE svg PUBLIC "-//W3C//DTD SVG 1.1//EN" "http://www.w3.org/Graphics/SVG/1.1/DTD/svg11.dtd">
<svg xmlns="http://www.w3.org/2000/svg"
	xmlns:xlink="http://www.w3.org/1999/xlink">
	<symbol id="icon-play"  viewBox="0 0 50 50">
		<path d="M9.375 6.25l31.25 18.75-31.25 18.75z"></path>
	</symbol>
	<symbol id="icon-pause" viewBox="0 0 50 50">
		<path d="M6.25 6.25h15.625v37.5h-15.625zM28.125 6.25h15.625v37.5h-15.625z"></path>
	</symbol>

	<svg id="icon-volume"
		xmlns="http://www.w3.org/2000/svg" viewBox="0 0 24 24" fill="#fff">
		<path d="M0 0h24v24H0z" fill="none"/>
		<path d="M3 9v6h4l5 5V4L7 9H3zm13.5 3c0-1.77-1.02-3.29-2.5-4.03v8.05c1.48-.73 2.5-2.25 2.5-4.02zM14 3.23v2.06c2.89.86 5 3.54 5 6.71s-2.11 5.85-5 6.71v2.06c4.01-.91 7-4.49 7-8.77s-2.99-7.86-7-8.77z"/>
	</svg>
	

	<svg id="icon-muted" xmlns="http://www.w3.org/2000/svg" viewBox="0 0 24 24" fill="#fff">
		<path d="M0 0h24v24H0V0z" fill="none"/>
		<path d="M4.34 2.93L2.93 4.34 7.29 8.7 7 9H3v6h4l5 5v-6.59l4.18 4.18c-.65.49-1.38.88-2.18 1.11v2.06c1.34-.3 2.57-.92 3.61-1.75l2.05 2.05 1.41-1.41L4.34 2.93zM10 15.17L7.83 13H5v-2h2.83l.88-.88L10 11.41v3.76zM19 12c0 .82-.15 1.61-.41 2.34l1.53 1.53c.56-1.17.88-2.48.88-3.87 0-4.28-2.99-7.86-7-8.77v2.06c2.89.86 5 3.54 5 6.71zm-7-8l-1.88 1.88L12 7.76zm4.5 8c0-1.77-1.02-3.29-2.5-4.03v1.79l2.48 2.48c.01-.08.02-.16.02-.24z"/>
	</svg>
	<symbol id="icon-settings" viewBox="0 0 24 24">
		<g><path d="M0,0h24v24H0V0z" fill="none"/><path d="M19.14,12.94c0.04-0.3,0.06-0.61,0.06-0.94c0-0.32-0.02-0.64-0.07-0.94l2.03-1.58c0.18-0.14,0.23-0.41,0.12-0.61 l-1.92-3.32c-0.12-0.22-0.37-0.29-0.59-0.22l-2.39,0.96c-0.5-0.38-1.03-0.7-1.62-0.94L14.4,2.81c-0.04-0.24-0.24-0.41-0.48-0.41 h-3.84c-0.24,0-0.43,0.17-0.47,0.41L9.25,5.35C8.66,5.59,8.12,5.92,7.63,6.29L5.24,5.33c-0.22-0.08-0.47,0-0.59,0.22L2.74,8.87 C2.62,9.08,2.66,9.34,2.86,9.48l2.03,1.58C4.84,11.36,4.8,11.69,4.8,12s0.02,0.64,0.07,0.94l-2.03,1.58 c-0.18,0.14-0.23,0.41-0.12,0.61l1.92,3.32c0.12,0.22,0.37,0.29,0.59,0.22l2.39-0.96c0.5,0.38,1.03,0.7,1.62,0.94l0.36,2.54 c0.05,0.24,0.24,0.41,0.48,0.41h3.84c0.24,0,0.44-0.17,0.47-0.41l0.36-2.54c0.59-0.24,1.13-0.56,1.62-0.94l2.39,0.96 c0.22,0.08,0.47,0,0.59-0.22l1.92-3.32c0.12-0.22,0.07-0.47-0.12-0.61L19.14,12.94z M12,15.6c-1.98,0-3.6-1.62-3.6-3.6 s1.62-3.6,3.6-3.6s3.6,1.62,3.6,3.6S13.98,15.6,12,15.6z"/></g>
	</symbol>
	<symbol  viewBox="0 0 50 50">
		<path d="M46.875 30.232v4.143h-4.143l-5.232-5.232-5.232 5.232h-4.143v-4.143l5.232-5.232-5.232-5.232v-4.143h4.143l5.232 5.232 5.232-5.232h4.143v4.143l-5.232 5.232 5.232 5.232z"></path>
		<path d="M20.313 46.875c-0.407 0-0.806-0.159-1.105-0.458l-12.042-12.042h-5.603c-0.863 0-1.563-0.7-1.563-1.563v-15.625c0-0.863 0.7-1.563 1.563-1.563h5.603l12.042-12.042c0.447-0.447 1.119-0.581 1.703-0.339s0.965 0.812 0.965 1.444v40.625c0 0.632-0.381 1.202-0.965 1.444-0.193 0.080-0.396 0.119-0.598 0.119z"></path>
	</symbol>
	<symbol id="icon-enter-fullscreen" viewBox="0 0 22 22">
		<path d="M0 0h24v24H0V0z" fill="none"/>
		<path d="M7 14H5v5h5v-2H7v-3zm-2-4h2V7h3V5H5v5zm12 7h-3v2h5v-5h-2v3zM14 5v2h3v3h2V5h-5z"/>
	</symbol>

	<symbol  viewBox="0 0 50 50">
		<path d="M38.416 42.834l7.166 7.166 4.419-4.419-7.166-7.166 7.166-7.166h-18.75v18.75zM0 18.75h18.75v-18.75l-7.166 7.166-7.092-7.098-4.419 4.419 7.092 7.098zM0 45.581l4.419 4.419 7.166-7.166 7.166 7.166v-18.75h-18.75l7.166 7.166zM31.25 18.75h18.75l-7.166-7.166 7.105-7.098-4.419-4.419-7.105 7.098-7.166-7.166z"></path>
	</symbol>
	<symbol id="icon-exit-fullscreen" viewBox="0 0 22 22">
		<path d="M0 0h24v24H0V0z" fill="none"/><path d="M5 16h3v3h2v-5H5v2zm3-8H5v2h5V5H8v3zm6 11h2v-3h3v-2h-5v5zm2-11V5h-2v5h5V8h-3z"/>
	</symbol>
	<symbol id="icon-airplay" viewBox="0 0 50 50">
		<path d="M43.75 6.25q1.66 0 2.93 1.27t1.27 2.93v25q0 1.66-1.27 2.881t-2.93 1.221h-8.301v-4.102h8.301v-25h-37.5v25h8.301v4.102h-8.301q-1.66 0-2.93-1.221t-1.27-2.881v-25q0-1.66 1.27-2.93t2.93-1.27h37.5zM12.5 45.801l12.5-12.5 12.5 12.5h-25z"></path>
	</symbol>
	<svg id="icon-pip"  xmlns="http://www.w3.org/2000/svg"  viewBox="0 0 24 24" fill="#fff"><path d="M0 0h24v24H0V0z" fill="none"/><path d="M21 3H3c-1.1 0-2 .9-2 2v14c0 1.1.9 2 2 2h18c1.1 0 2-.9 2-2V5c0-1.1-.9-2-2-2zm0 16H3V5h18v14zm-10-7h9v6h-9z"/>
	</svg>
	<symbol viewBox="0 0 50 50">
		<path d="M9.375 3.125v37.5h37.5v-37.5h-37.5zM43.75 37.5h-31.25v-31.25h31.25v31.25zM6.25 43.75v-32.813l-3.125-3.125v39.063h39.063l-3.125-3.125h-32.813z"></path>
		<path d="M17.188 12.5l7.813 7.813-9.375 9.375 4.688 4.688 9.375-9.375 7.813 7.813v-20.313z"></path>
	</symbol>
	<symbol id="icon-captions-on" viewBox="0 0 50 50">
		<path d="M37.5 22.949v-2.148q0-0.879-0.586-1.465t-1.465-0.586h-6.25q-0.879 0-1.514 0.586t-0.635 1.465v8.398q0 0.879 0.635 1.465t1.514 0.586h6.25q0.879 0 1.465-0.586t0.586-1.465v-2.148h-3.125v1.074h-4.199v-6.25h4.199v1.074h3.125zM22.949 22.949v-2.148q0-0.879-0.635-1.465t-1.514-0.586h-6.25q-0.879 0-1.465 0.586t-0.586 1.465v8.398q0 0.879 0.586 1.465t1.465 0.586h6.25q0.879 0 1.514-0.586t0.635-1.465v-2.148h-3.125v1.074h-4.199v-6.25h4.199v1.074h3.125zM39.551 8.301q1.66 0 2.93 1.27t1.27 2.93v25q0 1.66-1.27 2.93t-2.93 1.27h-29.102q-1.758 0-2.979-1.221t-1.221-2.979v-25q0-1.758 1.221-2.979t2.979-1.221h29.102z"></path>
	</symbol>
	<symbol id="icon-captions-off" viewBox="0 0 50 50">
		<path d="M37.5 22.949h-3.125v-1.074h-4.199v6.25h4.199v-1.074h3.125v2.148q0 0.879-0.586 1.465t-1.465 0.586h-6.25q-0.879 0-1.514-0.586t-0.635-1.465v-8.398q0-0.879 0.635-1.465t1.514-0.586h6.25q0.879 0 1.465 0.586t0.586 1.465v2.148zM22.949 22.949h-3.125v-1.074h-4.199v6.25h4.199v-1.074h3.125v2.148q0 0.879-0.635 1.465t-1.514 0.586h-6.25q-0.879 0-1.465-0.586t-0.586-1.465v-8.398q0-0.879 0.586-1.465t1.465-0.586h6.25q0.879 0 1.514 0.586t0.635 1.465v2.148zM39.551 8.301q1.66 0 2.93 1.27t1.27 2.93v25q0 1.66-1.27 2.93t-2.93 1.27h-29.102q-1.758 0-2.979-1.221t-1.221-2.979v-25q0-1.758 1.221-2.979t2.979-1.221h29.102zM40.625 11.426h-31.25v27.148h31.25v-27.148z"></path>
	</symbol>
</svg>
