<?xml version="1.0" encoding="UTF-8"?><!DOCTYPE svg PUBLIC "-//W3C//DTD SVG 1.1//EN" "http://www.w3.org/Graphics/SVG/1.1/DTD/svg11.dtd">
<svg xmlns="http://www.w3.org/2000/svg" xmlns:xlink="http://www.w3.org/1999/xlink">
	<symbol id="icon-play" viewBox="0 0 50 50">
		<path d="M9.375 6.25l31.25 18.75-31.25 18.75z"></path>
	</symbol>
	<symbol id="icon-pause" viewBox="0 0 50 50">
		<path d="M6.25 6.25h15.625v37.5h-15.625zM28.125 6.25h15.625v37.5h-15.625z"></path>
	</symbol>
	<symbol id="icon-settings" viewBox="0 0 50 50">
		<path d="M45.595 29.797c-2.623-4.544-1.046-10.366 3.523-13.012l-4.913-8.51c-1.404 0.823-3.036 1.295-4.778 1.295-5.251 0-9.507-4.284-9.507-9.57h-9.827c0.013 1.631-0.394 3.285-1.267 4.797-2.623 4.544-8.455 6.089-13.030 3.455l-4.913 8.51c1.415 0.804 2.639 1.982 3.51 3.49 2.619 4.537 1.050 10.348-3.501 12.999l4.913 8.51c1.399-0.815 3.023-1.282 4.756-1.282 5.234 0 9.48 4.257 9.507 9.519h9.827c-0.004-1.615 0.404-3.25 1.268-4.747 2.619-4.536 8.436-6.084 13.008-3.467l4.913-8.51c-1.405-0.804-2.622-1.977-3.488-3.478zM25 35.124c-5.591 0-10.124-4.532-10.124-10.124s4.533-10.124 10.124-10.124c5.591 0 10.124 4.533 10.124 10.124s-4.532 10.124-10.124 10.124z"></path>
	</symbol>
	<symbol id="icon-volume" viewBox="0 0 53 50">
		<path d="M43.459 45.021c-0.6 0-1.2-0.229-1.657-0.686-0.915-0.915-0.915-2.399 0-3.315 4.279-4.279 6.636-9.969 6.636-16.021s-2.357-11.741-6.636-16.020c-0.915-0.915-0.915-2.399 0-3.315s2.399-0.915 3.315 0c5.165 5.165 8.009 12.031 8.009 19.335s-2.844 14.17-8.009 19.335c-0.458 0.458-1.057 0.686-1.657 0.686zM35.133 40.602c-0.6 0-1.2-0.229-1.657-0.686-0.915-0.915-0.915-2.399 0-3.315 6.397-6.397 6.397-16.805 0-23.202-0.915-0.915-0.915-2.399 0-3.315s2.399-0.915 3.315 0c3.984 3.984 6.178 9.281 6.178 14.915s-2.194 10.931-6.178 14.916c-0.458 0.458-1.057 0.687-1.657 0.687v0zM26.808 36.183c-0.6 0-1.2-0.229-1.657-0.686-0.915-0.915-0.915-2.399 0-3.314 3.96-3.96 3.96-10.403 0-14.363-0.915-0.915-0.915-2.399 0-3.315s2.399-0.915 3.315 0c5.788 5.788 5.788 15.205 0 20.992-0.458 0.457-1.057 0.686-1.657 0.686z"></path>
		<path d="M20.313 46.875c-0.407 0-0.806-0.159-1.105-0.458l-12.042-12.042h-5.603c-0.863 0-1.563-0.7-1.563-1.563v-15.625c0-0.863 0.7-1.563 1.563-1.563h5.603l12.042-12.042c0.447-0.447 1.119-0.581 1.703-0.339s0.965 0.812 0.965 1.444v40.625c0 0.632-0.381 1.202-0.965 1.444-0.193 0.080-0.396 0.119-0.598 0.119z"></path>
	</symbol>
	<symbol id="icon-muted" viewBox="0 0 50 50">
		<path d="M46.875 30.232v4.143h-4.143l-5.232-5.232-5.232 5.232h-4.143v-4.143l5.232-5.232-5.232-5.232v-4.143h4.143l5.232 5.232 5.232-5.232h4.143v4.143l-5.232 5.232 5.232 5.232z"></path>
		<path d="M20.313 46.875c-0.407 0-0.806-0.159-1.105-0.458l-12.042-12.042h-5.603c-0.863 0-1.563-0.7-1.563-1.563v-15.625c0-0.863 0.7-1.563 1.563-1.563h5.603l12.042-12.042c0.447-0.447 1.119-0.581 1.703-0.339s0.965 0.812 0.965 1.444v40.625c0 0.632-0.381 1.202-0.965 1.444-0.193 0.080-0.396 0.119-0.598 0.119z"></path>
	</symbol>
	<symbol id="icon-enter-fullscreen" viewBox="0 0 50 50">
		<path d="M50 0h-20.313l7.813 7.813-9.375 9.375 4.688 4.688 9.375-9.375 7.813 7.813z"></path>
		<path d="M50 50v-20.313l-7.813 7.813-9.375-9.375-4.688 4.688 9.375 9.375-7.813 7.813z"></path>
		<path d="M0 50h20.313l-7.813-7.813 9.375-9.375-4.688-4.688-9.375 9.375-7.813-7.813z"></path>
		<path d="M0 0v20.313l7.813-7.813 9.375 9.375 4.688-4.688-9.375-9.375 7.813-7.813z"></path>
	</symbol>
	<symbol id="icon-exit-fullscreen" viewBox="0 0 50 50">
		<path d="M38.416 42.834l7.166 7.166 4.419-4.419-7.166-7.166 7.166-7.166h-18.75v18.75zM0 18.75h18.75v-18.75l-7.166 7.166-7.092-7.098-4.419 4.419 7.092 7.098zM0 45.581l4.419 4.419 7.166-7.166 7.166 7.166v-18.75h-18.75l7.166 7.166zM31.25 18.75h18.75l-7.166-7.166 7.105-7.098-4.419-4.419-7.105 7.098-7.166-7.166z"></path>
	</symbol>
	<symbol id="icon-airplay" viewBox="0 0 50 50">
		<path d="M43.75 6.25q1.66 0 2.93 1.27t1.27 2.93v25q0 1.66-1.27 2.881t-2.93 1.221h-8.301v-4.102h8.301v-25h-37.5v25h8.301v4.102h-8.301q-1.66 0-2.93-1.221t-1.27-2.881v-25q0-1.66 1.27-2.93t2.93-1.27h37.5zM12.5 45.801l12.5-12.5 12.5 12.5h-25z"></path>
	</symbol>
	<symbol id="icon-pip" viewBox="0 0 50 50">
		<path d="M9.375 3.125v37.5h37.5v-37.5h-37.5zM43.75 37.5h-31.25v-31.25h31.25v31.25zM6.25 43.75v-32.813l-3.125-3.125v39.063h39.063l-3.125-3.125h-32.813z"></path>
		<path d="M17.188 12.5l7.813 7.813-9.375 9.375 4.688 4.688 9.375-9.375 7.813 7.813v-20.313z"></path>
	</symbol>
	<symbol id="icon-captions-on" viewBox="0 0 50 50">
		<path d="M37.5 22.949v-2.148q0-0.879-0.586-1.465t-1.465-0.586h-6.25q-0.879 0-1.514 0.586t-0.635 1.465v8.398q0 0.879 0.635 1.465t1.514 0.586h6.25q0.879 0 1.465-0.586t0.586-1.465v-2.148h-3.125v1.074h-4.199v-6.25h4.199v1.074h3.125zM22.949 22.949v-2.148q0-0.879-0.635-1.465t-1.514-0.586h-6.25q-0.879 0-1.465 0.586t-0.586 1.465v8.398q0 0.879 0.586 1.465t1.465 0.586h6.25q0.879 0 1.514-0.586t0.635-1.465v-2.148h-3.125v1.074h-4.199v-6.25h4.199v1.074h3.125zM39.551 8.301q1.66 0 2.93 1.27t1.27 2.93v25q0 1.66-1.27 2.93t-2.93 1.27h-29.102q-1.758 0-2.979-1.221t-1.221-2.979v-25q0-1.758 1.221-2.979t2.979-1.221h29.102z"></path>
	</symbol>
	<symbol id="icon-captions-off" viewBox="0 0 50 50">
		<path d="M37.5 22.949h-3.125v-1.074h-4.199v6.25h4.199v-1.074h3.125v2.148q0 0.879-0.586 1.465t-1.465 0.586h-6.25q-0.879 0-1.514-0.586t-0.635-1.465v-8.398q0-0.879 0.635-1.465t1.514-0.586h6.25q0.879 0 1.465 0.586t0.586 1.465v2.148zM22.949 22.949h-3.125v-1.074h-4.199v6.25h4.199v-1.074h3.125v2.148q0 0.879-0.635 1.465t-1.514 0.586h-6.25q-0.879 0-1.465-0.586t-0.586-1.465v-8.398q0-0.879 0.586-1.465t1.465-0.586h6.25q0.879 0 1.514 0.586t0.635 1.465v2.148zM39.551 8.301q1.66 0 2.93 1.27t1.27 2.93v25q0 1.66-1.27 2.93t-2.93 1.27h-29.102q-1.758 0-2.979-1.221t-1.221-2.979v-25q0-1.758 1.221-2.979t2.979-1.221h29.102zM40.625 11.426h-31.25v27.148h31.25v-27.148z"></path>
	</symbol>
</svg>
